<?xml version="1.0" encoding="us-ascii" standalone="no"?><svg xmlns="http://www.w3.org/2000/svg" xmlns:xlink="http://www.w3.org/1999/xlink" contentStyleType="text/css" height="1650px" preserveAspectRatio="none" style="width:1488px;height:1650px;background:#FFFFFF;" version="1.1" viewBox="0 0 1488 1650" width="1488px" zoomAndPan="magnify"><defs/><g><!--class Button--><g id="elem_Button"><rect codeLine="1" fill="#F1F1F1" height="194.6719" id="Button" rx="2.5" ry="2.5" style="stroke:#181818;stroke-width:0.5;" width="943" x="7" y="770.5"/><ellipse cx="449.25" cy="786.5" fill="#ADD1B2" rx="11" ry="11" style="stroke:#181818;stroke-width:1.0;"/><path d="M451.5938,782.1719 C450.6563,781.7344 450.0625,781.5938 449.1875,781.5938 C446.5625,781.5938 444.5625,783.6719 444.5625,786.3906 L444.5625,787.5156 C444.5625,790.0938 446.6719,791.9844 449.5625,791.9844 C450.7813,791.9844 451.9375,791.6875 452.6875,791.1406 C453.2656,790.7344 453.5938,790.2813 453.5938,789.8906 C453.5938,789.4375 453.2031,789.0469 452.7344,789.0469 C452.5156,789.0469 452.3125,789.125 452.125,789.3125 C451.6719,789.7969 451.6719,789.7969 451.4844,789.8906 C451.0625,790.1563 450.375,790.2813 449.6094,790.2813 C447.5625,790.2813 446.2656,789.1875 446.2656,787.4844 L446.2656,786.3906 C446.2656,784.6094 447.5156,783.2969 449.25,783.2969 C449.8281,783.2969 450.4375,783.4531 450.9063,783.7031 C451.3906,783.9844 451.5625,784.2031 451.6563,784.6094 C451.7188,785.0156 451.75,785.1406 451.8906,785.2656 C452.0313,785.4063 452.2656,785.5156 452.4844,785.5156 C452.75,785.5156 453.0156,785.375 453.1875,785.1563 C453.2969,785 453.3281,784.8125 453.3281,784.3906 L453.3281,782.9688 C453.3281,782.5313 453.3125,782.4063 453.2188,782.25 C453.0625,781.9844 452.7813,781.8438 452.4844,781.8438 C452.1875,781.8438 451.9844,781.9375 451.7656,782.25 L451.5938,782.1719 Z " fill="#000000"/><text fill="#000000" font-family="sans-serif" font-size="14" lengthAdjust="spacing" textLength="50" x="469.75" y="791.3467">Button</text><line style="stroke:#181818;stroke-width:0.5;" x1="8" x2="949" y1="802.5" y2="802.5"/><rect fill="none" height="6" style="stroke:#C82930;stroke-width:1.0;" width="6" x="15" y="813.1484"/><text fill="#000000" font-family="sans-serif" font-size="14" lengthAdjust="spacing" textLength="214" x="27" y="819.4951">m_shape: sf::RectangleShape</text><rect fill="none" height="6" style="stroke:#C82930;stroke-width:1.0;" width="6" x="15" y="829.4453"/><text fill="#000000" font-family="sans-serif" font-size="14" lengthAdjust="spacing" textLength="117" x="27" y="835.792">m_text: sf::Text</text><rect fill="none" height="6" style="stroke:#C82930;stroke-width:1.0;" width="6" x="15" y="845.7422"/><text fill="#000000" font-family="sans-serif" font-size="14" lengthAdjust="spacing" textLength="117" x="27" y="852.0889">m_font: sf::Font</text><rect fill="none" height="6" style="stroke:#C82930;stroke-width:1.0;" width="6" x="15" y="862.0391"/><text fill="#000000" font-family="sans-serif" font-size="14" lengthAdjust="spacing" textLength="127" x="27" y="868.3857">m_color: sf::Color</text><rect fill="none" height="6" style="stroke:#C82930;stroke-width:1.0;" width="6" x="15" y="878.3359"/><text fill="#000000" font-family="sans-serif" font-size="14" lengthAdjust="spacing" textLength="169" x="27" y="884.6826">m_colorHover: sf::Color</text><line style="stroke:#181818;stroke-width:0.5;" x1="8" x2="949" y1="891.9844" y2="891.9844"/><rect fill="#F24D5C" height="6" style="stroke:#C82930;stroke-width:1.0;" width="6" x="15" y="902.6328"/><text fill="#000000" font-family="sans-serif" font-size="14" lengthAdjust="spacing" textLength="238" x="27" y="908.9795">m_onClick: std::function&lt;void()&gt;</text><ellipse cx="18" cy="921.9297" fill="#84BE84" rx="3" ry="3" style="stroke:#038048;stroke-width:1.0;"/><text fill="#000000" font-family="sans-serif" font-size="14" lengthAdjust="spacing" textLength="917" x="27" y="925.2764">Button(position: sf::Vector2f, size: sf::Vector2f, text: const std::string&amp;, color: const sf::Color&amp;, onClick: std::function&lt;void()&gt;)</text><ellipse cx="18" cy="938.2266" fill="#84BE84" rx="3" ry="3" style="stroke:#038048;stroke-width:1.0;"/><text fill="#000000" font-family="sans-serif" font-size="14" lengthAdjust="spacing" textLength="428" x="27" y="941.5732">handleEvent(event: sf::Event, window: sf::RenderWindow&amp;)</text><ellipse cx="18" cy="954.5234" fill="#84BE84" rx="3" ry="3" style="stroke:#038048;stroke-width:1.0;"/><text fill="#000000" font-family="sans-serif" font-size="14" lengthAdjust="spacing" textLength="248" x="27" y="957.8701">draw(window: sf::RenderWindow&amp;)</text></g><!--class GridPos--><g id="elem_GridPos"><rect codeLine="13" fill="#F1F1F1" height="129.4844" id="GridPos" rx="2.5" ry="2.5" style="stroke:#181818;stroke-width:0.5;" width="298" x="582.5" y="492"/><ellipse cx="699.75" cy="508" fill="#ADD1B2" rx="11" ry="11" style="stroke:#181818;stroke-width:1.0;"/><path d="M702.0938,503.6719 C701.1563,503.2344 700.5625,503.0938 699.6875,503.0938 C697.0625,503.0938 695.0625,505.1719 695.0625,507.8906 L695.0625,509.0156 C695.0625,511.5938 697.1719,513.4844 700.0625,513.4844 C701.2813,513.4844 702.4375,513.1875 703.1875,512.6406 C703.7656,512.2344 704.0938,511.7813 704.0938,511.3906 C704.0938,510.9375 703.7031,510.5469 703.2344,510.5469 C703.0156,510.5469 702.8125,510.625 702.625,510.8125 C702.1719,511.2969 702.1719,511.2969 701.9844,511.3906 C701.5625,511.6563 700.875,511.7813 700.1094,511.7813 C698.0625,511.7813 696.7656,510.6875 696.7656,508.9844 L696.7656,507.8906 C696.7656,506.1094 698.0156,504.7969 699.75,504.7969 C700.3281,504.7969 700.9375,504.9531 701.4063,505.2031 C701.8906,505.4844 702.0625,505.7031 702.1563,506.1094 C702.2188,506.5156 702.25,506.6406 702.3906,506.7656 C702.5313,506.9063 702.7656,507.0156 702.9844,507.0156 C703.25,507.0156 703.5156,506.875 703.6875,506.6563 C703.7969,506.5 703.8281,506.3125 703.8281,505.8906 L703.8281,504.4688 C703.8281,504.0313 703.8125,503.9063 703.7188,503.75 C703.5625,503.4844 703.2813,503.3438 702.9844,503.3438 C702.6875,503.3438 702.4844,503.4375 702.2656,503.75 L702.0938,503.6719 Z " fill="#000000"/><text fill="#000000" font-family="sans-serif" font-size="14" lengthAdjust="spacing" textLength="55" x="720.25" y="512.8467">GridPos</text><line style="stroke:#181818;stroke-width:0.5;" x1="583.5" x2="879.5" y1="524" y2="524"/><rect fill="none" height="6" style="stroke:#C82930;stroke-width:1.0;" width="6" x="590.5" y="534.6484"/><text fill="#000000" font-family="sans-serif" font-size="14" lengthAdjust="spacing" textLength="37" x="602.5" y="540.9951">x: int</text><rect fill="none" height="6" style="stroke:#C82930;stroke-width:1.0;" width="6" x="590.5" y="550.9453"/><text fill="#000000" font-family="sans-serif" font-size="14" lengthAdjust="spacing" textLength="37" x="602.5" y="557.292">y: int</text><line style="stroke:#181818;stroke-width:0.5;" x1="583.5" x2="879.5" y1="564.5938" y2="564.5938"/><ellipse cx="593.5" cy="578.2422" fill="#84BE84" rx="3" ry="3" style="stroke:#038048;stroke-width:1.0;"/><text fill="#000000" font-family="sans-serif" font-size="14" lengthAdjust="spacing" textLength="147" x="602.5" y="581.5889">GridPos(x: int, y: int)</text><ellipse cx="593.5" cy="594.5391" fill="#84BE84" rx="3" ry="3" style="stroke:#038048;stroke-width:1.0;"/><text fill="#000000" font-family="sans-serif" font-size="14" lengthAdjust="spacing" textLength="213" x="602.5" y="597.8857">equals(gridPos: GridPos): bool</text><ellipse cx="593.5" cy="610.8359" fill="#84BE84" rx="3" ry="3" style="stroke:#038048;stroke-width:1.0;"/><text fill="#000000" font-family="sans-serif" font-size="14" lengthAdjust="spacing" textLength="272" x="602.5" y="614.1826">sameYBiggerX(gridPos: GridPos): bool</text></g><!--class Entity--><g id="elem_Entity"><rect codeLine="21" fill="#F1F1F1" height="292.4531" id="Entity" rx="2.5" ry="2.5" style="stroke:#181818;stroke-width:0.5;" width="270" x="985.5" y="722"/><ellipse cx="1094.25" cy="738" fill="#ADD1B2" rx="11" ry="11" style="stroke:#181818;stroke-width:1.0;"/><path d="M1096.5938,733.6719 C1095.6563,733.2344 1095.0625,733.0938 1094.1875,733.0938 C1091.5625,733.0938 1089.5625,735.1719 1089.5625,737.8906 L1089.5625,739.0156 C1089.5625,741.5938 1091.6719,743.4844 1094.5625,743.4844 C1095.7813,743.4844 1096.9375,743.1875 1097.6875,742.6406 C1098.2656,742.2344 1098.5938,741.7813 1098.5938,741.3906 C1098.5938,740.9375 1098.2031,740.5469 1097.7344,740.5469 C1097.5156,740.5469 1097.3125,740.625 1097.125,740.8125 C1096.6719,741.2969 1096.6719,741.2969 1096.4844,741.3906 C1096.0625,741.6563 1095.375,741.7813 1094.6094,741.7813 C1092.5625,741.7813 1091.2656,740.6875 1091.2656,738.9844 L1091.2656,737.8906 C1091.2656,736.1094 1092.5156,734.7969 1094.25,734.7969 C1094.8281,734.7969 1095.4375,734.9531 1095.9063,735.2031 C1096.3906,735.4844 1096.5625,735.7031 1096.6563,736.1094 C1096.7188,736.5156 1096.75,736.6406 1096.8906,736.7656 C1097.0313,736.9063 1097.2656,737.0156 1097.4844,737.0156 C1097.75,737.0156 1098.0156,736.875 1098.1875,736.6563 C1098.2969,736.5 1098.3281,736.3125 1098.3281,735.8906 L1098.3281,734.4688 C1098.3281,734.0313 1098.3125,733.9063 1098.2188,733.75 C1098.0625,733.4844 1097.7813,733.3438 1097.4844,733.3438 C1097.1875,733.3438 1096.9844,733.4375 1096.7656,733.75 L1096.5938,733.6719 Z " fill="#000000"/><text fill="#000000" font-family="sans-serif" font-size="14" lengthAdjust="spacing" textLength="44" x="1114.75" y="742.8467">Entity</text><line style="stroke:#181818;stroke-width:0.5;" x1="986.5" x2="1254.5" y1="754" y2="754"/><rect fill="none" height="6" style="stroke:#C82930;stroke-width:1.0;" width="6" x="993.5" y="764.6484"/><text fill="#000000" font-family="sans-serif" font-size="14" lengthAdjust="spacing" textLength="37" x="1005.5" y="770.9951">x: int</text><rect fill="none" height="6" style="stroke:#C82930;stroke-width:1.0;" width="6" x="993.5" y="780.9453"/><text fill="#000000" font-family="sans-serif" font-size="14" lengthAdjust="spacing" textLength="37" x="1005.5" y="787.292">y: int</text><rect fill="none" height="6" style="stroke:#C82930;stroke-width:1.0;" width="6" x="993.5" y="797.2422"/><text fill="#000000" font-family="sans-serif" font-size="14" lengthAdjust="spacing" textLength="74" x="1005.5" y="803.5889">xVel: float</text><rect fill="none" height="6" style="stroke:#C82930;stroke-width:1.0;" width="6" x="993.5" y="813.5391"/><text fill="#000000" font-family="sans-serif" font-size="14" lengthAdjust="spacing" textLength="74" x="1005.5" y="819.8857">yVel: float</text><rect fill="none" height="6" style="stroke:#C82930;stroke-width:1.0;" width="6" x="993.5" y="829.8359"/><text fill="#000000" font-family="sans-serif" font-size="14" lengthAdjust="spacing" textLength="89" x="1005.5" y="836.1826">health: float</text><rect fill="none" height="6" style="stroke:#C82930;stroke-width:1.0;" width="6" x="993.5" y="846.1328"/><text fill="#000000" font-family="sans-serif" font-size="14" lengthAdjust="spacing" textLength="142" x="1005.5" y="852.4795">texture: sf::Texture</text><rect fill="none" height="6" style="stroke:#C82930;stroke-width:1.0;" width="6" x="993.5" y="862.4297"/><text fill="#000000" font-family="sans-serif" font-size="14" lengthAdjust="spacing" textLength="120" x="1005.5" y="868.7764">sprite: sf::Sprite</text><rect fill="none" height="6" style="stroke:#C82930;stroke-width:1.0;" width="6" x="993.5" y="878.7266"/><text fill="#000000" font-family="sans-serif" font-size="14" lengthAdjust="spacing" textLength="42" x="1005.5" y="885.0732">id: int</text><rect fill="none" height="6" style="stroke:#C82930;stroke-width:1.0;" width="6" x="993.5" y="895.0234"/><text fill="#000000" font-family="sans-serif" font-size="14" lengthAdjust="spacing" textLength="126" x="1005.5" y="901.3701">group: std::string</text><rect fill="none" height="6" style="stroke:#C82930;stroke-width:1.0;" width="6" x="993.5" y="911.3203"/><text fill="#000000" font-family="sans-serif" font-size="14" lengthAdjust="spacing" textLength="98" x="1005.5" y="917.667">game: Game*</text><line style="stroke:#181818;stroke-width:0.5;" x1="986.5" x2="1254.5" y1="924.9688" y2="924.9688"/><ellipse cx="996.5" cy="938.6172" fill="#84BE84" rx="3" ry="3" style="stroke:#038048;stroke-width:1.0;"/><text fill="#000000" font-family="sans-serif" font-size="14" lengthAdjust="spacing" textLength="89" x="1005.5" y="941.9639">ready(): void</text><ellipse cx="996.5" cy="954.9141" fill="#84BE84" rx="3" ry="3" style="stroke:#038048;stroke-width:1.0;"/><text fill="#000000" font-family="sans-serif" font-size="14" lengthAdjust="spacing" textLength="160" x="1005.5" y="958.2607">damage(d: float): bool</text><ellipse cx="996.5" cy="971.2109" fill="#84BE84" rx="3" ry="3" style="stroke:#038048;stroke-width:1.0;"/><text fill="#000000" font-family="sans-serif" font-size="14" lengthAdjust="spacing" textLength="77" x="1005.5" y="974.5576">tick(): void</text><ellipse cx="996.5" cy="987.5078" fill="#84BE84" rx="3" ry="3" style="stroke:#038048;stroke-width:1.0;"/><text fill="#000000" font-family="sans-serif" font-size="14" lengthAdjust="spacing" textLength="154" x="1005.5" y="990.8545">getGridPos(): GridPos</text><ellipse cx="996.5" cy="1003.8047" fill="#84BE84" rx="3" ry="3" style="stroke:#038048;stroke-width:1.0;"/><text fill="#000000" font-family="sans-serif" font-size="14" lengthAdjust="spacing" textLength="244" x="1005.5" y="1007.1514">setGridPos(gridPos: GridPos): void</text></g><!--class Game--><g id="elem_Game"><rect codeLine="39" fill="#F1F1F1" height="569.5" id="Game" rx="2.5" ry="2.5" style="stroke:#181818;stroke-width:0.5;" width="735" x="432" y="1074"/><ellipse cx="774.25" cy="1090" fill="#ADD1B2" rx="11" ry="11" style="stroke:#181818;stroke-width:1.0;"/><path d="M776.5938,1085.6719 C775.6563,1085.2344 775.0625,1085.0938 774.1875,1085.0938 C771.5625,1085.0938 769.5625,1087.1719 769.5625,1089.8906 L769.5625,1091.0156 C769.5625,1093.5938 771.6719,1095.4844 774.5625,1095.4844 C775.7813,1095.4844 776.9375,1095.1875 777.6875,1094.6406 C778.2656,1094.2344 778.5938,1093.7813 778.5938,1093.3906 C778.5938,1092.9375 778.2031,1092.5469 777.7344,1092.5469 C777.5156,1092.5469 777.3125,1092.625 777.125,1092.8125 C776.6719,1093.2969 776.6719,1093.2969 776.4844,1093.3906 C776.0625,1093.6563 775.375,1093.7813 774.6094,1093.7813 C772.5625,1093.7813 771.2656,1092.6875 771.2656,1090.9844 L771.2656,1089.8906 C771.2656,1088.1094 772.5156,1086.7969 774.25,1086.7969 C774.8281,1086.7969 775.4375,1086.9531 775.9063,1087.2031 C776.3906,1087.4844 776.5625,1087.7031 776.6563,1088.1094 C776.7188,1088.5156 776.75,1088.6406 776.8906,1088.7656 C777.0313,1088.9063 777.2656,1089.0156 777.4844,1089.0156 C777.75,1089.0156 778.0156,1088.875 778.1875,1088.6563 C778.2969,1088.5 778.3281,1088.3125 778.3281,1087.8906 L778.3281,1086.4688 C778.3281,1086.0313 778.3125,1085.9063 778.2188,1085.75 C778.0625,1085.4844 777.7813,1085.3438 777.4844,1085.3438 C777.1875,1085.3438 776.9844,1085.4375 776.7656,1085.75 L776.5938,1085.6719 Z " fill="#000000"/><text fill="#000000" font-family="sans-serif" font-size="14" lengthAdjust="spacing" textLength="42" x="794.75" y="1094.8467">Game</text><line style="stroke:#181818;stroke-width:0.5;" x1="433" x2="1166" y1="1106" y2="1106"/><rect fill="none" height="6" style="stroke:#C82930;stroke-width:1.0;" width="6" x="440" y="1116.6484"/><text fill="#000000" font-family="sans-serif" font-size="14" lengthAdjust="spacing" textLength="247" x="452" y="1122.9951">gameWindow: sf::RenderWindow&amp;</text><rect fill="none" height="6" style="stroke:#C82930;stroke-width:1.0;" width="6" x="440" y="1132.9453"/><text fill="#000000" font-family="sans-serif" font-size="14" lengthAdjust="spacing" textLength="279" x="452" y="1139.292">entityCollection: std::vector&lt;Entity*&gt;</text><rect fill="none" height="6" style="stroke:#C82930;stroke-width:1.0;" width="6" x="440" y="1149.2422"/><text fill="#000000" font-family="sans-serif" font-size="14" lengthAdjust="spacing" textLength="137" x="452" y="1155.5889">FRAME_RATE: float</text><rect fill="none" height="6" style="stroke:#C82930;stroke-width:1.0;" width="6" x="440" y="1165.5391"/><text fill="#000000" font-family="sans-serif" font-size="14" lengthAdjust="spacing" textLength="119" x="452" y="1171.8857">GRID_SPACE: int</text><rect fill="none" height="6" style="stroke:#C82930;stroke-width:1.0;" width="6" x="440" y="1181.8359"/><text fill="#000000" font-family="sans-serif" font-size="14" lengthAdjust="spacing" textLength="116" x="452" y="1188.1826">GRID_ROWS: int</text><rect fill="none" height="6" style="stroke:#C82930;stroke-width:1.0;" width="6" x="440" y="1198.1328"/><text fill="#000000" font-family="sans-serif" font-size="14" lengthAdjust="spacing" textLength="148" x="452" y="1204.4795">WINDOW_WIDTH: int</text><rect fill="none" height="6" style="stroke:#C82930;stroke-width:1.0;" width="6" x="440" y="1214.4297"/><text fill="#000000" font-family="sans-serif" font-size="14" lengthAdjust="spacing" textLength="153" x="452" y="1220.7764">WINDOW_HEIGHT: int</text><rect fill="none" height="6" style="stroke:#C82930;stroke-width:1.0;" width="6" x="440" y="1230.7266"/><text fill="#000000" font-family="sans-serif" font-size="14" lengthAdjust="spacing" textLength="165" x="452" y="1237.0732">mousePos: sf::Vector2i</text><rect fill="none" height="6" style="stroke:#C82930;stroke-width:1.0;" width="6" x="440" y="1247.0234"/><text fill="#000000" font-family="sans-serif" font-size="14" lengthAdjust="spacing" textLength="155" x="452" y="1253.3701">frameClock: sf::Clock</text><rect fill="none" height="6" style="stroke:#C82930;stroke-width:1.0;" width="6" x="440" y="1263.3203"/><text fill="#000000" font-family="sans-serif" font-size="14" lengthAdjust="spacing" textLength="152" x="452" y="1269.667">gameClock: sf::Clock</text><rect fill="none" height="6" style="stroke:#C82930;stroke-width:1.0;" width="6" x="440" y="1279.6172"/><text fill="#000000" font-family="sans-serif" font-size="14" lengthAdjust="spacing" textLength="96" x="452" y="1285.9639">font: sf::Font</text><rect fill="none" height="6" style="stroke:#C82930;stroke-width:1.0;" width="6" x="440" y="1295.9141"/><text fill="#000000" font-family="sans-serif" font-size="14" lengthAdjust="spacing" textLength="105" x="452" y="1302.2607">delta: sf::Time</text><rect fill="none" height="6" style="stroke:#C82930;stroke-width:1.0;" width="6" x="440" y="1312.2109"/><text fill="#000000" font-family="sans-serif" font-size="14" lengthAdjust="spacing" textLength="89" x="452" y="1318.5576">uniqueId: int</text><rect fill="none" height="6" style="stroke:#C82930;stroke-width:1.0;" width="6" x="440" y="1328.5078"/><text fill="#000000" font-family="sans-serif" font-size="14" lengthAdjust="spacing" textLength="124" x="452" y="1334.8545">bananaCount: int</text><rect fill="none" height="6" style="stroke:#C82930;stroke-width:1.0;" width="6" x="440" y="1344.8047"/><text fill="#000000" font-family="sans-serif" font-size="14" lengthAdjust="spacing" textLength="97" x="452" y="1351.1514">editMode: int</text><rect fill="none" height="6" style="stroke:#C82930;stroke-width:1.0;" width="6" x="440" y="1361.1016"/><text fill="#000000" font-family="sans-serif" font-size="14" lengthAdjust="spacing" textLength="128" x="452" y="1367.4482">selectedPlant: int</text><line style="stroke:#181818;stroke-width:0.5;" x1="433" x2="1166" y1="1374.75" y2="1374.75"/><ellipse cx="443" cy="1388.3984" fill="#84BE84" rx="3" ry="3" style="stroke:#038048;stroke-width:1.0;"/><text fill="#000000" font-family="sans-serif" font-size="14" lengthAdjust="spacing" textLength="256" x="452" y="1391.7451">Game(window: sf::RenderWindow&amp;)</text><ellipse cx="443" cy="1404.6953" fill="#84BE84" rx="3" ry="3" style="stroke:#038048;stroke-width:1.0;"/><text fill="#000000" font-family="sans-serif" font-size="14" lengthAdjust="spacing" textLength="63" x="452" y="1408.042">~Game()</text><ellipse cx="443" cy="1420.9922" fill="#84BE84" rx="3" ry="3" style="stroke:#038048;stroke-width:1.0;"/><text fill="#000000" font-family="sans-serif" font-size="14" lengthAdjust="spacing" textLength="126" x="452" y="1424.3389">deltaTime(): float</text><ellipse cx="443" cy="1437.2891" fill="#84BE84" rx="3" ry="3" style="stroke:#038048;stroke-width:1.0;"/><text fill="#000000" font-family="sans-serif" font-size="14" lengthAdjust="spacing" textLength="169" x="452" y="1440.6357">gridToFree(g: int): float</text><ellipse cx="443" cy="1453.5859" fill="#84BE84" rx="3" ry="3" style="stroke:#038048;stroke-width:1.0;"/><text fill="#000000" font-family="sans-serif" font-size="14" lengthAdjust="spacing" textLength="166" x="452" y="1456.9326">freeToGrid(f: float): int</text><ellipse cx="443" cy="1469.8828" fill="#84BE84" rx="3" ry="3" style="stroke:#038048;stroke-width:1.0;"/><text fill="#000000" font-family="sans-serif" font-size="14" lengthAdjust="spacing" textLength="188" x="452" y="1473.2295">snapOnGrid(v: float): float</text><ellipse cx="443" cy="1486.1797" fill="#84BE84" rx="3" ry="3" style="stroke:#038048;stroke-width:1.0;"/><text fill="#000000" font-family="sans-serif" font-size="14" lengthAdjust="spacing" textLength="234" x="452" y="1489.5264">createEntity(entity: Entity*): int</text><ellipse cx="443" cy="1502.4766" fill="#84BE84" rx="3" ry="3" style="stroke:#038048;stroke-width:1.0;"/><text fill="#000000" font-family="sans-serif" font-size="14" lengthAdjust="spacing" textLength="234" x="452" y="1505.8232">destroyEntity(entityId: int): void</text><ellipse cx="443" cy="1518.7734" fill="#84BE84" rx="3" ry="3" style="stroke:#038048;stroke-width:1.0;"/><text fill="#000000" font-family="sans-serif" font-size="14" lengthAdjust="spacing" textLength="709" x="452" y="1522.1201">getCollisions(x: int, y: int, hitRadius: int, groupFilter: const std::string&amp; = ""): std::vector&lt;Entity*&gt;</text><ellipse cx="443" cy="1535.0703" fill="#84BE84" rx="3" ry="3" style="stroke:#038048;stroke-width:1.0;"/><text fill="#000000" font-family="sans-serif" font-size="14" lengthAdjust="spacing" textLength="676" x="452" y="1538.417">getGridCollisions(collision: GridPos, groupFilter: const std::string&amp; = ""): std::vector&lt;Entity*&gt;</text><ellipse cx="443" cy="1551.3672" fill="#84BE84" rx="3" ry="3" style="stroke:#038048;stroke-width:1.0;"/><text fill="#000000" font-family="sans-serif" font-size="14" lengthAdjust="spacing" textLength="542" x="452" y="1554.7139">hasGridCollision(gridPos: GridPos, groupFilter: const std::string&amp; = ""): bool</text><ellipse cx="443" cy="1567.6641" fill="#84BE84" rx="3" ry="3" style="stroke:#038048;stroke-width:1.0;"/><text fill="#000000" font-family="sans-serif" font-size="14" lengthAdjust="spacing" textLength="347" x="452" y="1571.0107">hasZombieOnRowBefore(gridPos: GridPos): bool</text><ellipse cx="443" cy="1583.9609" fill="#84BE84" rx="3" ry="3" style="stroke:#038048;stroke-width:1.0;"/><text fill="#000000" font-family="sans-serif" font-size="14" lengthAdjust="spacing" textLength="210" x="452" y="1587.3076">renderMouseSelection(): void</text><ellipse cx="443" cy="1600.2578" fill="#84BE84" rx="3" ry="3" style="stroke:#038048;stroke-width:1.0;"/><text fill="#000000" font-family="sans-serif" font-size="14" lengthAdjust="spacing" textLength="115" x="452" y="1603.6045">placePlant(): int</text><ellipse cx="443" cy="1616.5547" fill="#84BE84" rx="3" ry="3" style="stroke:#038048;stroke-width:1.0;"/><text fill="#000000" font-family="sans-serif" font-size="14" lengthAdjust="spacing" textLength="141" x="452" y="1619.9014">removePlant(): void</text><ellipse cx="443" cy="1632.8516" fill="#84BE84" rx="3" ry="3" style="stroke:#038048;stroke-width:1.0;"/><text fill="#000000" font-family="sans-serif" font-size="14" lengthAdjust="spacing" textLength="128" x="452" y="1636.1982">startGame(): bool</text></g><!--class Zombie--><g id="elem_Zombie"><rect codeLine="74" fill="#F1F1F1" height="210.9688" id="Zombie" rx="2.5" ry="2.5" style="stroke:#181818;stroke-width:0.5;" width="238" x="915.5" y="451"/><ellipse cx="1002.25" cy="467" fill="#ADD1B2" rx="11" ry="11" style="stroke:#181818;stroke-width:1.0;"/><path d="M1004.5938,462.6719 C1003.6563,462.2344 1003.0625,462.0938 1002.1875,462.0938 C999.5625,462.0938 997.5625,464.1719 997.5625,466.8906 L997.5625,468.0156 C997.5625,470.5938 999.6719,472.4844 1002.5625,472.4844 C1003.7813,472.4844 1004.9375,472.1875 1005.6875,471.6406 C1006.2656,471.2344 1006.5938,470.7813 1006.5938,470.3906 C1006.5938,469.9375 1006.2031,469.5469 1005.7344,469.5469 C1005.5156,469.5469 1005.3125,469.625 1005.125,469.8125 C1004.6719,470.2969 1004.6719,470.2969 1004.4844,470.3906 C1004.0625,470.6563 1003.375,470.7813 1002.6094,470.7813 C1000.5625,470.7813 999.2656,469.6875 999.2656,467.9844 L999.2656,466.8906 C999.2656,465.1094 1000.5156,463.7969 1002.25,463.7969 C1002.8281,463.7969 1003.4375,463.9531 1003.9063,464.2031 C1004.3906,464.4844 1004.5625,464.7031 1004.6563,465.1094 C1004.7188,465.5156 1004.75,465.6406 1004.8906,465.7656 C1005.0313,465.9063 1005.2656,466.0156 1005.4844,466.0156 C1005.75,466.0156 1006.0156,465.875 1006.1875,465.6563 C1006.2969,465.5 1006.3281,465.3125 1006.3281,464.8906 L1006.3281,463.4688 C1006.3281,463.0313 1006.3125,462.9063 1006.2188,462.75 C1006.0625,462.4844 1005.7813,462.3438 1005.4844,462.3438 C1005.1875,462.3438 1004.9844,462.4375 1004.7656,462.75 L1004.5938,462.6719 Z " fill="#000000"/><text fill="#000000" font-family="sans-serif" font-size="14" lengthAdjust="spacing" textLength="56" x="1022.75" y="471.8467">Zombie</text><line style="stroke:#181818;stroke-width:0.5;" x1="916.5" x2="1152.5" y1="483" y2="483"/><rect fill="none" height="6" style="stroke:#C82930;stroke-width:1.0;" width="6" x="923.5" y="493.6484"/><text fill="#000000" font-family="sans-serif" font-size="14" lengthAdjust="spacing" textLength="122" x="935.5" y="499.9951">knockback: float</text><rect fill="none" height="6" style="stroke:#C82930;stroke-width:1.0;" width="6" x="923.5" y="509.9453"/><text fill="#000000" font-family="sans-serif" font-size="14" lengthAdjust="spacing" textLength="146" x="935.5" y="516.292">startingGridRow: int</text><rect fill="none" height="6" style="stroke:#C82930;stroke-width:1.0;" width="6" x="923.5" y="526.2422"/><text fill="#000000" font-family="sans-serif" font-size="14" lengthAdjust="spacing" textLength="125" x="935.5" y="532.5889">xVelNormal: float</text><rect fill="none" height="6" style="stroke:#C82930;stroke-width:1.0;" width="6" x="923.5" y="542.5391"/><text fill="#000000" font-family="sans-serif" font-size="14" lengthAdjust="spacing" textLength="188" x="935.5" y="548.8857">damageDonePerSec: float</text><line style="stroke:#181818;stroke-width:0.5;" x1="916.5" x2="1152.5" y1="556.1875" y2="556.1875"/><ellipse cx="926.5" cy="569.8359" fill="#84BE84" rx="3" ry="3" style="stroke:#038048;stroke-width:1.0;"/><text fill="#000000" font-family="sans-serif" font-size="14" lengthAdjust="spacing" textLength="212" x="935.5" y="573.1826">Zombie(startingGridRow: int)</text><ellipse cx="926.5" cy="586.1328" fill="#84BE84" rx="3" ry="3" style="stroke:#038048;stroke-width:1.0;"/><text fill="#000000" font-family="sans-serif" font-size="14" lengthAdjust="spacing" textLength="89" x="935.5" y="589.4795">ready(): void</text><ellipse cx="926.5" cy="602.4297" fill="#84BE84" rx="3" ry="3" style="stroke:#038048;stroke-width:1.0;"/><text fill="#000000" font-family="sans-serif" font-size="14" lengthAdjust="spacing" textLength="160" x="935.5" y="605.7764">damage(d: float): bool</text><ellipse cx="926.5" cy="618.7266" fill="#84BE84" rx="3" ry="3" style="stroke:#038048;stroke-width:1.0;"/><text fill="#000000" font-family="sans-serif" font-size="14" lengthAdjust="spacing" textLength="77" x="935.5" y="622.0732">tick(): void</text><ellipse cx="926.5" cy="635.0234" fill="#84BE84" rx="3" ry="3" style="stroke:#038048;stroke-width:1.0;"/><text fill="#000000" font-family="sans-serif" font-size="14" lengthAdjust="spacing" textLength="124" x="935.5" y="638.3701">getGridRow(): int</text><ellipse cx="926.5" cy="651.3203" fill="#84BE84" rx="3" ry="3" style="stroke:#038048;stroke-width:1.0;"/><text fill="#000000" font-family="sans-serif" font-size="14" lengthAdjust="spacing" textLength="202" x="935.5" y="654.667">getProgressLocation(): float</text></g><!--class Projectile--><g id="elem_Projectile"><rect codeLine="87" fill="#F1F1F1" height="178.375" id="Projectile" rx="2.5" ry="2.5" style="stroke:#181818;stroke-width:0.5;" width="222" x="1259.5" y="467.5"/><ellipse cx="1331.75" cy="483.5" fill="#ADD1B2" rx="11" ry="11" style="stroke:#181818;stroke-width:1.0;"/><path d="M1334.0938,479.1719 C1333.1563,478.7344 1332.5625,478.5938 1331.6875,478.5938 C1329.0625,478.5938 1327.0625,480.6719 1327.0625,483.3906 L1327.0625,484.5156 C1327.0625,487.0938 1329.1719,488.9844 1332.0625,488.9844 C1333.2813,488.9844 1334.4375,488.6875 1335.1875,488.1406 C1335.7656,487.7344 1336.0938,487.2813 1336.0938,486.8906 C1336.0938,486.4375 1335.7031,486.0469 1335.2344,486.0469 C1335.0156,486.0469 1334.8125,486.125 1334.625,486.3125 C1334.1719,486.7969 1334.1719,486.7969 1333.9844,486.8906 C1333.5625,487.1563 1332.875,487.2813 1332.1094,487.2813 C1330.0625,487.2813 1328.7656,486.1875 1328.7656,484.4844 L1328.7656,483.3906 C1328.7656,481.6094 1330.0156,480.2969 1331.75,480.2969 C1332.3281,480.2969 1332.9375,480.4531 1333.4063,480.7031 C1333.8906,480.9844 1334.0625,481.2031 1334.1563,481.6094 C1334.2188,482.0156 1334.25,482.1406 1334.3906,482.2656 C1334.5313,482.4063 1334.7656,482.5156 1334.9844,482.5156 C1335.25,482.5156 1335.5156,482.375 1335.6875,482.1563 C1335.7969,482 1335.8281,481.8125 1335.8281,481.3906 L1335.8281,479.9688 C1335.8281,479.5313 1335.8125,479.4063 1335.7188,479.25 C1335.5625,478.9844 1335.2813,478.8438 1334.9844,478.8438 C1334.6875,478.8438 1334.4844,478.9375 1334.2656,479.25 L1334.0938,479.1719 Z " fill="#000000"/><text fill="#000000" font-family="sans-serif" font-size="14" lengthAdjust="spacing" textLength="69" x="1352.25" y="488.3467">Projectile</text><line style="stroke:#181818;stroke-width:0.5;" x1="1260.5" x2="1480.5" y1="499.5" y2="499.5"/><rect fill="none" height="6" style="stroke:#C82930;stroke-width:1.0;" width="6" x="1267.5" y="510.1484"/><text fill="#000000" font-family="sans-serif" font-size="14" lengthAdjust="spacing" textLength="102" x="1279.5" y="516.4951">lifeSpan: float</text><rect fill="none" height="6" style="stroke:#C82930;stroke-width:1.0;" width="6" x="1267.5" y="526.4453"/><text fill="#000000" font-family="sans-serif" font-size="14" lengthAdjust="spacing" textLength="124" x="1279.5" y="532.792">damageDone: int</text><rect fill="none" height="6" style="stroke:#C82930;stroke-width:1.0;" width="6" x="1267.5" y="542.7422"/><text fill="#000000" font-family="sans-serif" font-size="14" lengthAdjust="spacing" textLength="136" x="1279.5" y="549.0889">baseVelocity: float</text><rect fill="none" height="6" style="stroke:#C82930;stroke-width:1.0;" width="6" x="1267.5" y="559.0391"/><text fill="#000000" font-family="sans-serif" font-size="14" lengthAdjust="spacing" textLength="143" x="1279.5" y="565.3857">initGridPos: GridPos</text><rect fill="none" height="6" style="stroke:#C82930;stroke-width:1.0;" width="6" x="1267.5" y="575.3359"/><text fill="#000000" font-family="sans-serif" font-size="14" lengthAdjust="spacing" textLength="108" x="1279.5" y="581.6826">lifeTimer: float</text><line style="stroke:#181818;stroke-width:0.5;" x1="1260.5" x2="1480.5" y1="588.9844" y2="588.9844"/><ellipse cx="1270.5" cy="602.6328" fill="#84BE84" rx="3" ry="3" style="stroke:#038048;stroke-width:1.0;"/><text fill="#000000" font-family="sans-serif" font-size="14" lengthAdjust="spacing" textLength="196" x="1279.5" y="605.9795">Projectile(gridPos: GridPos)</text><ellipse cx="1270.5" cy="618.9297" fill="#84BE84" rx="3" ry="3" style="stroke:#038048;stroke-width:1.0;"/><text fill="#000000" font-family="sans-serif" font-size="14" lengthAdjust="spacing" textLength="89" x="1279.5" y="622.2764">ready(): void</text><ellipse cx="1270.5" cy="635.2266" fill="#84BE84" rx="3" ry="3" style="stroke:#038048;stroke-width:1.0;"/><text fill="#000000" font-family="sans-serif" font-size="14" lengthAdjust="spacing" textLength="77" x="1279.5" y="638.5732">tick(): void</text></g><!--class Plant--><g id="elem_Plant"><rect codeLine="98" fill="#F1F1F1" height="162.0781" id="Plant" rx="2.5" ry="2.5" style="stroke:#181818;stroke-width:0.5;" width="190" x="1193.5" y="229"/><ellipse cx="1265.75" cy="245" fill="#ADD1B2" rx="11" ry="11" style="stroke:#181818;stroke-width:1.0;"/><path d="M1268.0938,240.6719 C1267.1563,240.2344 1266.5625,240.0938 1265.6875,240.0938 C1263.0625,240.0938 1261.0625,242.1719 1261.0625,244.8906 L1261.0625,246.0156 C1261.0625,248.5938 1263.1719,250.4844 1266.0625,250.4844 C1267.2813,250.4844 1268.4375,250.1875 1269.1875,249.6406 C1269.7656,249.2344 1270.0938,248.7813 1270.0938,248.3906 C1270.0938,247.9375 1269.7031,247.5469 1269.2344,247.5469 C1269.0156,247.5469 1268.8125,247.625 1268.625,247.8125 C1268.1719,248.2969 1268.1719,248.2969 1267.9844,248.3906 C1267.5625,248.6563 1266.875,248.7813 1266.1094,248.7813 C1264.0625,248.7813 1262.7656,247.6875 1262.7656,245.9844 L1262.7656,244.8906 C1262.7656,243.1094 1264.0156,241.7969 1265.75,241.7969 C1266.3281,241.7969 1266.9375,241.9531 1267.4063,242.2031 C1267.8906,242.4844 1268.0625,242.7031 1268.1563,243.1094 C1268.2188,243.5156 1268.25,243.6406 1268.3906,243.7656 C1268.5313,243.9063 1268.7656,244.0156 1268.9844,244.0156 C1269.25,244.0156 1269.5156,243.875 1269.6875,243.6563 C1269.7969,243.5 1269.8281,243.3125 1269.8281,242.8906 L1269.8281,241.4688 C1269.8281,241.0313 1269.8125,240.9063 1269.7188,240.75 C1269.5625,240.4844 1269.2813,240.3438 1268.9844,240.3438 C1268.6875,240.3438 1268.4844,240.4375 1268.2656,240.75 L1268.0938,240.6719 Z " fill="#000000"/><text fill="#000000" font-family="sans-serif" font-size="14" lengthAdjust="spacing" textLength="37" x="1286.25" y="249.8467">Plant</text><line style="stroke:#181818;stroke-width:0.5;" x1="1194.5" x2="1382.5" y1="261" y2="261"/><rect fill="none" height="6" style="stroke:#C82930;stroke-width:1.0;" width="6" x="1201.5" y="271.6484"/><text fill="#000000" font-family="sans-serif" font-size="14" lengthAdjust="spacing" textLength="136" x="1213.5" y="277.9951">attackSpeed: float</text><rect fill="none" height="6" style="stroke:#C82930;stroke-width:1.0;" width="6" x="1201.5" y="287.9453"/><text fill="#000000" font-family="sans-serif" font-size="14" lengthAdjust="spacing" textLength="132" x="1213.5" y="294.292">attackTimer: float</text><rect fill="none" height="6" style="stroke:#C82930;stroke-width:1.0;" width="6" x="1201.5" y="304.2422"/><text fill="#000000" font-family="sans-serif" font-size="14" lengthAdjust="spacing" textLength="143" x="1213.5" y="310.5889">initGridPos: GridPos</text><ellipse cx="1204.5" cy="323.5391" fill="none" rx="3" ry="3" style="stroke:#038048;stroke-width:1.0;"/><text fill="#000000" font-family="sans-serif" font-size="14" lengthAdjust="spacing" textLength="66" x="1213.5" y="326.8857">price: int</text><line style="stroke:#181818;stroke-width:0.5;" x1="1194.5" x2="1382.5" y1="334.1875" y2="334.1875"/><ellipse cx="1204.5" cy="347.8359" fill="#84BE84" rx="3" ry="3" style="stroke:#038048;stroke-width:1.0;"/><text fill="#000000" font-family="sans-serif" font-size="14" lengthAdjust="spacing" textLength="164" x="1213.5" y="351.1826">Plant(gridPos: GridPos)</text><ellipse cx="1204.5" cy="364.1328" fill="#84BE84" rx="3" ry="3" style="stroke:#038048;stroke-width:1.0;"/><text fill="#000000" font-family="sans-serif" font-size="14" lengthAdjust="spacing" textLength="89" x="1213.5" y="367.4795">ready(): void</text><ellipse cx="1204.5" cy="380.4297" fill="#84BE84" rx="3" ry="3" style="stroke:#038048;stroke-width:1.0;"/><text fill="#000000" font-family="sans-serif" font-size="14" lengthAdjust="spacing" textLength="77" x="1213.5" y="383.7764">tick(): void</text></g><!--class ProductionPlant--><g id="elem_ProductionPlant"><rect codeLine="108" fill="#F1F1F1" height="162.0781" id="ProductionPlant" rx="2.5" ry="2.5" style="stroke:#181818;stroke-width:0.5;" width="268" x="1154.5" y="7"/><ellipse cx="1226.75" cy="23" fill="#ADD1B2" rx="11" ry="11" style="stroke:#181818;stroke-width:1.0;"/><path d="M1229.0938,18.6719 C1228.1563,18.2344 1227.5625,18.0938 1226.6875,18.0938 C1224.0625,18.0938 1222.0625,20.1719 1222.0625,22.8906 L1222.0625,24.0156 C1222.0625,26.5938 1224.1719,28.4844 1227.0625,28.4844 C1228.2813,28.4844 1229.4375,28.1875 1230.1875,27.6406 C1230.7656,27.2344 1231.0938,26.7813 1231.0938,26.3906 C1231.0938,25.9375 1230.7031,25.5469 1230.2344,25.5469 C1230.0156,25.5469 1229.8125,25.625 1229.625,25.8125 C1229.1719,26.2969 1229.1719,26.2969 1228.9844,26.3906 C1228.5625,26.6563 1227.875,26.7813 1227.1094,26.7813 C1225.0625,26.7813 1223.7656,25.6875 1223.7656,23.9844 L1223.7656,22.8906 C1223.7656,21.1094 1225.0156,19.7969 1226.75,19.7969 C1227.3281,19.7969 1227.9375,19.9531 1228.4063,20.2031 C1228.8906,20.4844 1229.0625,20.7031 1229.1563,21.1094 C1229.2188,21.5156 1229.25,21.6406 1229.3906,21.7656 C1229.5313,21.9063 1229.7656,22.0156 1229.9844,22.0156 C1230.25,22.0156 1230.5156,21.875 1230.6875,21.6563 C1230.7969,21.5 1230.8281,21.3125 1230.8281,20.8906 L1230.8281,19.4688 C1230.8281,19.0313 1230.8125,18.9063 1230.7188,18.75 C1230.5625,18.4844 1230.2813,18.3438 1229.9844,18.3438 C1229.6875,18.3438 1229.4844,18.4375 1229.2656,18.75 L1229.0938,18.6719 Z " fill="#000000"/><text fill="#000000" font-family="sans-serif" font-size="14" lengthAdjust="spacing" textLength="115" x="1247.25" y="27.8467">ProductionPlant</text><line style="stroke:#181818;stroke-width:0.5;" x1="1155.5" x2="1421.5" y1="39" y2="39"/><rect fill="none" height="6" style="stroke:#C82930;stroke-width:1.0;" width="6" x="1162.5" y="49.6484"/><text fill="#000000" font-family="sans-serif" font-size="14" lengthAdjust="spacing" textLength="162" x="1174.5" y="55.9951">productionDelay: float</text><rect fill="none" height="6" style="stroke:#C82930;stroke-width:1.0;" width="6" x="1162.5" y="65.9453"/><text fill="#000000" font-family="sans-serif" font-size="14" lengthAdjust="spacing" textLength="164" x="1174.5" y="72.292">productionTimer: float</text><rect fill="none" height="6" style="stroke:#C82930;stroke-width:1.0;" width="6" x="1162.5" y="82.2422"/><text fill="#000000" font-family="sans-serif" font-size="14" lengthAdjust="spacing" textLength="165" x="1174.5" y="88.5889">productionAmount: int</text><line style="stroke:#181818;stroke-width:0.5;" x1="1155.5" x2="1421.5" y1="95.8906" y2="95.8906"/><ellipse cx="1165.5" cy="109.5391" fill="#84BE84" rx="3" ry="3" style="stroke:#038048;stroke-width:1.0;"/><text fill="#000000" font-family="sans-serif" font-size="14" lengthAdjust="spacing" textLength="242" x="1174.5" y="112.8857">ProductionPlant(gridPos: GridPos)</text><ellipse cx="1165.5" cy="125.8359" fill="#84BE84" rx="3" ry="3" style="stroke:#038048;stroke-width:1.0;"/><text fill="#000000" font-family="sans-serif" font-size="14" lengthAdjust="spacing" textLength="89" x="1174.5" y="129.1826">ready(): void</text><ellipse cx="1165.5" cy="142.1328" fill="#84BE84" rx="3" ry="3" style="stroke:#038048;stroke-width:1.0;"/><text fill="#000000" font-family="sans-serif" font-size="14" lengthAdjust="spacing" textLength="77" x="1174.5" y="145.4795">tick(): void</text><ellipse cx="1165.5" cy="158.4297" fill="#84BE84" rx="3" ry="3" style="stroke:#038048;stroke-width:1.0;"/><text fill="#000000" font-family="sans-serif" font-size="14" lengthAdjust="spacing" textLength="108" x="1174.5" y="161.7764">produce(): void</text></g><!--link Entity to Game--><g id="link_Entity_Game"><path codeLine="118" d="M1025.06,1014.243 C1012.49,1033.368 1005.8738,1043.4383 992.4178,1063.9163 " fill="none" id="Entity-to-Game" style="stroke:#181818;stroke-width:1.0;"/><polygon fill="none" points="985.828,1073.945,992.4658,1071.1273,992.4178,1063.9163,985.78,1066.7341,985.828,1073.945" style="stroke:#181818;stroke-width:1.0;"/></g><!--link GridPos to Entity--><g id="link_GridPos_Entity"><path codeLine="119" d="M829.768,621.16 C873.089,650.446 923.94,686.511 967.5,722 C973.458,726.854 970.3533,724.0827 976.3673,729.2327 " fill="none" id="GridPos-to-Entity" style="stroke:#181818;stroke-width:1.0;"/><polygon fill="#181818" points="985.482,737.038,983.5264,730.0971,976.3673,729.2327,978.3229,736.1736,985.482,737.038" style="stroke:#181818;stroke-width:1.0;"/></g><!--link ProductionPlant to Plant--><g id="link_ProductionPlant_Plant"><path codeLine="120" d="M1288.5,169.05 C1288.5,188.46 1288.5,191.22 1288.5,210.64 " fill="none" id="ProductionPlant-to-Plant" style="stroke:#181818;stroke-width:1.0;"/><polygon fill="none" points="1288.5,228.64,1294.5,210.64,1282.5,210.64,1288.5,228.64" style="stroke:#181818;stroke-width:1.0;"/></g><!--link Zombie to Entity--><g id="link_Zombie_Entity"><path codeLine="121" d="M1063.62,662.283 C1068.95,681.485 1069.7942,684.4942 1075.3842,704.6262 " fill="none" id="Zombie-to-Entity" style="stroke:#181818;stroke-width:1.0;"/><polygon fill="none" points="1080.2,721.97,1081.1655,703.0209,1069.6029,706.2315,1080.2,721.97" style="stroke:#181818;stroke-width:1.0;"/></g><!--link Projectile to Entity--><g id="link_Projectile_Entity"><path codeLine="122" d="M1299.19,645.776 C1280,669.539 1270.0315,681.8833 1249.0415,707.8653 " fill="none" id="Projectile-to-Entity" style="stroke:#181818;stroke-width:1.0;"/><polygon fill="none" points="1237.73,721.867,1253.7088,711.6358,1244.3743,704.0947,1237.73,721.867" style="stroke:#181818;stroke-width:1.0;"/></g><!--link Plant to Entity--><g id="link_Plant_Entity"><path codeLine="123" d="M1261.66,391.18 C1255.26,410.72 1248.54,431.58 1242.5,451 C1214.63,540.66 1189.9399,624.4255 1166.8399,704.4885 " fill="none" id="Plant-to-Entity" style="stroke:#181818;stroke-width:1.0;"/><polygon fill="none" points="1161.85,721.783,1172.6047,706.1517,1161.075,702.8252,1161.85,721.783" style="stroke:#181818;stroke-width:1.0;"/></g><!--link Button to Game--><g id="link_Button_Game"><path codeLine="124" d="M541.919,965.512 C562.977,997.558 587.606,1035.038 613.131,1073.883 " fill="none" id="Button-Game" style="stroke:#181818;stroke-width:1.0;"/></g><!--reverse link Plant to Projectile--><g id="link_Plant_Projectile"><path codeLine="125" d="M1319.1643,402.4376 C1327.3343,426.8076 1332.55,442.35 1340.9,467.24 " fill="none" id="Plant-backto-Projectile" style="stroke:#181818;stroke-width:1.0;"/><polygon fill="none" points="1315.35,391.06,1313.4646,398.0203,1319.1643,402.4376,1321.0497,395.4774,1315.35,391.06" style="stroke:#181818;stroke-width:1.0;"/></g><!--SRC=[hLVRRjiu47ttLmXzAEJ4Ujb7eGsGs4vYe6aCsuXtzoLWn97CBKMg9EKqtSktBs-wK7QSnI89O4XpHiCpCsT6TaQHbD5LhHHdqP-ZIFybKVaeTwY2D99vcguWKuWL5DR6rdee-A6SmqPVjUQSCs- -rbUjEUEK2sUVciiGkELxE8foDgKa-wOXXTCqhrcc26UVzfpWU7nXtSuz-RZYaXZKnNdGhBdu9Pz4alo4eSsHppYJoeMMIX1MV9n4dgY76a8QE4rbxBdi4CCKvdjWAWRpwKwsXadqJ1ZcpqrP6GQnjPQFpUDOeEVuXDVVer5c6tOZ25vosNRiHngHjjmltSrvunaxZua7cmFXUuseZ0ldb3RUupHwufnw9ubA-EsA50M8NrzrRQdDcIBgvKrc6da0caOvvQY53omxG5JjGfjfNYsW4v- -yP2i154UMTjh3n3SFxaGlAxIVkSRG6UgCzEVPpvt0GY_n3f9q-YcIwX41SJOqmgBfRH81lu5gAOBuxPkJMqxx4XbRP2kwPfNMrT3TVkQKhmFs5Pe1LF8_6YObFTs3ZwvHfrTUEVhrUNT_75rkPc7vRvPBMQFw-NbTDuleRMkxhVhld6x-3gxtpvk5xFDxH7xxNnnSxlf0oMl9TYSU_D9F9WBdUAKSZjqPXBDPI_xLw2Z6mW3LSWhXfIDAcf6ljUm2BJnX9Z-d_BQHEdCW8cwunZwDWcche2N5FMTpssZuZU7_H_hrew-OMYu6OrqzTVgqMhOy6i141TkTaCyryY66yt4UQV8ZenagBfd5jztU3z2faMkmCaXTff9_HYV1Q4mw6dXBu6dhzw1uetgYDIY6wwUIRGZQeKmgQM_j-DuJQW2SMmfHv-Z3n_69xJRJbZlpAovRCVfFSxP8HcSSp2p__cGtiRGGN_dvHE1UxRYprUGSm5lR6HXzNHdfcSDVhW7IwUYA0Ehp3ZeeO1IlsrReFU4L4WefydXJdVysjtpZUbnUq9c-lgRmWRGIHhAAoFzSDT_vQ94W_tkLkcCCrY2M4CM2jCT6n-BEtx__Qn3XwNIzgNWXG0fl_0CDKLs3DlQQ9S_J0TeLnzASbXNYBsMQxXl9EZYyCnENT-VCDAy6yAtXZl0x0eHrgkZSgYV4_KAIjBbPIJIfeIKqlrULm0uPEc00p8dw6jj2f91lz9EZk_0MN1Sssa8sLUjVGOK3UhSWKUowC3BCdmdd0zF-__ycwgOSD3Fod-NIX9ktocZvcjVafpv1JqQffmaVrsuUexyr5fBvzs8DJ1tZtgB_qMG9EvWvy3rRHVXNm00]--></g></svg>